# xmcd
#
# Track frame offsets: 
#        150
#        21868
#        47638
#        63734
#        81276
#        97481
#        111960
#        128231
#        140739
#        162754
#        175422
#
# Disc length: 2600 seconds
#
# Revision: 0
# Processed by: cddbd v1.5.2PL0 Copyright (c) Steve Scherf et al.
# Submitted via: ExactAudioCopy v0.99pb3
#
DISCID=a30a260b
DTITLE=Don Francisco - The Sower
DYEAR=2007
DGENRE=
TTITLE0=Shepherd's Song
TTITLE1=Behold The Lamb
TTITLE2=It Is Written
TTITLE3=Consider
TTITLE4=It Will Be So
TTITLE5=Blessed
TTITLE6=Rock Steady
TTITLE7=Give It For Love
TTITLE8=Hole In The Roof
TTITLE9=Let Your Light Shine
TTITLE10=The Sower
EXTD=
EXTT0=
EXTT1=
EXTT2=
EXTT3=
EXTT4=
EXTT5=
EXTT6=
EXTT7=
EXTT8=
EXTT9=
EXTT10=
PLAYORDER=
